<svg id="Layer_1" data-name="Layer 1" xmlns="http://www.w3.org/2000/svg" viewBox="0 0 136 51"><defs><style>.cls-1{fill:#fff;}</style></defs><title>gd</title><polygon class="cls-1" points="58.81 8.63 59.88 8.63 62.48 12.22 64.11 12.22 60.96 7.98 63.8 4.1 62.21 4.1 59.86 7.43 58.81 7.43 58.81 4.1 57.48 4.1 57.48 12.22 58.81 12.22 58.81 8.63"/><path class="cls-1" d="M69.39,7.11c-3.26,0-4.91,1-4.91,2.87a2.56,2.56,0,0,0,2.79,2.43,3,3,0,0,0,2.5-1.34v1.15h1.28V7.06A2.8,2.8,0,0,0,68,3.92a4.74,4.74,0,0,0-2.86.92L65,4.91l.62,1,.12-.09a3.65,3.65,0,0,1,2.15-.72c1.21,0,1.8.62,1.8,1.89v.08Zm.33,1.12v.22c0,1.35-.87,2.8-2.27,2.8a1.46,1.46,0,0,1-1.63-1.37c0-1.47,1.92-1.65,3.58-1.65Z"/><path class="cls-1" d="M76.87,12.38v3h1.3v-3A4.19,4.19,0,0,0,82.4,8.12a4.16,4.16,0,0,0-4.23-4.18V1h-1.3V3.94a4.15,4.15,0,0,0-4.23,4.18,4.19,4.19,0,0,0,4.23,4.26m0-1.19A3,3,0,0,1,74,8.12a2.86,2.86,0,0,1,2.88-3Zm4.18-3.07a3,3,0,0,1-2.88,3.07v-6a2.86,2.86,0,0,1,2.88,3"/><path class="cls-1" d="M87.88,12.41a4.71,4.71,0,0,0,3-1.13l.08-.07-.63-1.05-.12.11a3.53,3.53,0,0,1-2.3.9A2.81,2.81,0,0,1,85,8.34h6V8.21a4.89,4.89,0,0,0,0-.54c0-1.87-1-3.75-3.41-3.75a4,4,0,0,0-4,4.25,4.11,4.11,0,0,0,4.25,4.24m-2.8-5.19a2.54,2.54,0,0,1,2.54-2.16,2.07,2.07,0,0,1,2.09,2.16Z"/><path class="cls-1" d="M93.22,12.22h6v1.87h1.28v-3H99.4v-7H94.27V5.52c0,2.5-.43,4.36-1.3,5.53h-1v3h1.29Zm4.84-6.94v5.77H94.42a11.16,11.16,0,0,0,1.17-5.44V5.28Z"/><path class="cls-1" d="M103.4,11.4v-.2a3,3,0,0,0,2.44,1.21c2.15,0,3.65-1.75,3.65-4.26s-1.4-4.23-3.55-4.23a3.07,3.07,0,0,0-2.58,1.24V4.1h-1.29V15.34h1.33Zm0-3.22c0-2.23,1.25-3,2.41-3,1.41,0,2.36,1.21,2.36,3s-1,3-2.41,3-2.36-1.51-2.36-3"/><path class="cls-1" d="M115.5,7.11c-3.26,0-4.91,1-4.91,2.87a2.56,2.56,0,0,0,2.79,2.43,3,3,0,0,0,2.5-1.34v1.15h1.28V7.06a2.8,2.8,0,0,0-3.07-3.14,4.74,4.74,0,0,0-2.86.92l-.09.07.62,1,.12-.09A3.65,3.65,0,0,1,114,5.14c1.21,0,1.8.62,1.8,1.89v.08Zm.33,1.12v.22c0,1.35-.86,2.8-2.27,2.8a1.46,1.46,0,0,1-1.62-1.37c0-1.47,1.91-1.65,3.57-1.65Z"/><polygon class="cls-1" points="58.81 22.69 62.43 22.69 62.43 21.5 57.48 21.5 57.48 29.62 58.81 29.62 58.81 22.69"/><path class="cls-1" d="M67.49,29.81c2.15,0,3.65-1.75,3.65-4.26s-1.4-4.23-3.55-4.23A3.07,3.07,0,0,0,65,22.56V21.5H63.72V32.74h1.33V28.6a3,3,0,0,0,2.44,1.21M65,25.58c0-2.23,1.25-3,2.41-3,1.41,0,2.36,1.21,2.36,3s-1,3-2.41,3-2.36-1.5-2.36-3"/><path class="cls-1" d="M75,29.81a3,3,0,0,0,2.5-1.34v1.15h1.28V24.46a2.81,2.81,0,0,0-3.07-3.15,4.75,4.75,0,0,0-2.86.93l-.09.07.62,1,.12-.09a3.65,3.65,0,0,1,2.15-.72c1.21,0,1.8.62,1.8,1.89v.08h-.33c-3.26,0-4.91,1-4.91,2.87A2.56,2.56,0,0,0,75,29.81m-1.44-2.53c0-1.47,1.91-1.65,3.57-1.65h.32v.22c0,1.35-.87,2.8-2.27,2.8a1.45,1.45,0,0,1-1.62-1.37"/><path class="cls-1" d="M85.93,21.34V18.43h-1.3v2.91a4.22,4.22,0,1,0,0,8.44v3h1.3v-3a4.22,4.22,0,1,0,0-8.44m0,1.21a2.86,2.86,0,0,1,2.88,3,3,3,0,0,1-2.88,3.07Zm-4.18,3a2.86,2.86,0,0,1,2.88-3v6a3,3,0,0,1-2.88-3.07"/><rect class="cls-1" x="91.65" y="21.5" width="1.33" height="8.12"/><rect class="cls-1" x="91.6" y="18.38" width="1.42" height="1.6"/><path class="cls-1" d="M99.35,29.62h1.33V21.5H99.35V25a3.22,3.22,0,0,1-1.82.58c-1.44,0-1.64-.76-1.64-1.51V21.5H94.58v2.63c0,1.71,1,2.62,2.77,2.62a4.73,4.73,0,0,0,2-.52,2.35,2.35,0,0,0,0,.27Z"/><polygon class="cls-1" points="109.85 29.62 109.85 21.5 108.52 21.5 108.52 24.86 104.2 24.86 104.2 21.5 102.87 21.5 102.87 29.62 104.2 29.62 104.2 26.06 108.52 26.06 108.52 29.62 109.85 29.62"/><path class="cls-1" d="M115.8,21.31a4.19,4.19,0,0,0-4.27,4.21,4.28,4.28,0,1,0,4.27-4.21m2.92,4.21a2.92,2.92,0,1,1-2.92-3,2.92,2.92,0,0,1,2.92,3"/><polygon class="cls-1" points="121.76 29.62 123.09 29.62 123.09 22.69 126.71 22.69 126.71 21.5 121.76 21.5 121.76 29.62"/><path class="cls-1" d="M131.49,21.31a4.2,4.2,0,0,0-4.27,4.21,4.28,4.28,0,1,0,4.27-4.21m2.92,4.21a3,3,0,0,1-2.92,3.05,3,3,0,1,1,2.92-3.05"/><path class="cls-1" d="M63.51,38.9H58.39v1.42c0,2.5-.44,4.36-1.31,5.52h-1v3h1.28V47h6v1.87h1.28v-3h-1.1Zm-1.33,1.18v5.76H58.53a11.1,11.1,0,0,0,1.17-5.43v-.33Z"/><path class="cls-1" d="M67.91,44.11l-.56.8c0-.34,0-.72,0-.73V38.9h-1.3V47h1.22l3.9-5.22c.12-.19.28-.4.42-.6l.13-.18c0,.22,0,.48,0,.7V47H73V38.9H71.81Z"/><path class="cls-1" d="M79,42.74A1.89,1.89,0,0,0,80,41c0-1.39-1-2.25-2.69-2.25a4.07,4.07,0,0,0-2.63.89l-.09.08.61,1,.12-.1a2.87,2.87,0,0,1,1.83-.67c.56,0,1.49.15,1.49,1.19s-.88,1.19-1.61,1.19h-1v1.11h1.09c.81,0,1.77.22,1.77,1.26S78.05,46,77.18,46a2.86,2.86,0,0,1-2-.92L75.06,45l-.73,1,.09.08a4,4,0,0,0,2.82,1.18c1.47,0,3.05-.8,3.05-2.54A2,2,0,0,0,79,42.74"/><path class="cls-1" d="M84.93,38.71a4.75,4.75,0,0,0-2.86.93l-.09.07.62,1,.12-.09a3.65,3.65,0,0,1,2.15-.72c1.21,0,1.8.62,1.8,1.89v.08h-.33c-3.26,0-4.91,1-4.91,2.87a2.55,2.55,0,0,0,2.78,2.43,3,3,0,0,0,2.51-1.34V47H88V41.86a2.81,2.81,0,0,0-3.07-3.15M86.67,43v.22c0,1.34-.87,2.8-2.27,2.8a1.46,1.46,0,0,1-1.63-1.37c0-1.47,1.92-1.65,3.58-1.65Z"/><path class="cls-1" d="M92,44.11c-.15.2-.39.54-.57.8,0-.34,0-.72,0-.73V38.9h-1.3V47h1.22l3.89-5.22.42-.6.14-.18c0,.22,0,.48,0,.7V47H97.1V38.9H95.88Z"/><path class="cls-1" d="M93.61,38.14a2,2,0,0,0,2.2-2v-.4H94.63v.35a1,1,0,0,1-1,1,.94.94,0,0,1-1-.94v-.37H91.42v.4a2,2,0,0,0,2.19,2"/><polygon class="cls-1" points="104.95 42.26 100.63 42.26 100.63 38.9 99.3 38.9 99.3 47.02 100.63 47.02 100.63 43.46 104.95 43.46 104.95 47.02 106.28 47.02 106.28 38.9 104.95 38.9 104.95 42.26"/><path class="cls-1" d="M111.63,44.71c-.06.16-.12.33-.16.48-.06-.15-.12-.32-.18-.48L109,38.9H107.5l3.31,7.91-.44,1.07c-.2.44-.63,1.19-1.37,1.19a1.55,1.55,0,0,1-.86-.33l-.13-.1-.52,1.09.08.07a2.48,2.48,0,0,0,3.84-1.23l4-9.67h-1.43Z"/><path class="cls-1" d="M26.64,1.69H.3V49.84H26.64a24.08,24.08,0,0,0,0-48.15M10.32,9.55h2l-2,2Zm0,4.3,4.29-4.3h2.6l-6.89,6.9Zm0,4.92,9.21-9.22h2.6L10.32,21.37Zm0,4.92L24.45,9.55h2.6L10.32,26.29ZM23,40.64,19.31,37h0l-1.25,1.25h0l3.72,3.72H19.2l-3.7-3.75,3.81-3.81L23,38Zm0-4.9-3.67-3.67v0l-6.14,6.14,3.73,3.74H14.27l-3.74-3.75,8.78-8.73h0l0,0v.06L23,33.11Zm0-5-3.67-3.66-9,9v-2.6l9-9L23,28.17Zm0-4.87-3.67-3.67v0l-9,9V28.61l9-9L23,23.29Zm10.09-5.17L29.4,17.07,28,18.47l3.69,3.67H29.07L25.4,18.47l4-4,3.64,3.68Zm0-4.9-3.67-3.7-6.29,6.32,3.67,3.67H24.14l-3.62-3.63,0,0h0l8.92-8.92v0l0,0,3.67,3.68Z"/></svg>