<svg xmlns="http://www.w3.org/2000/svg" viewBox="0 0 359 342"><defs><style>.cls-1{isolation:isolate;}.cls-2{fill:#3100ff;}.cls-3{mix-blend-mode:multiply;}.cls-4{fill:#15004c;}.cls-5{fill:#fff;}</style></defs><title>scheme</title><g class="cls-1"><g id="Layer_1" data-name="Layer 1"><path class="cls-2" d="M329.12,143.7l-6.29-4.49a2.32,2.32,0,0,1-1-1.88V122.5a2.33,2.33,0,0,0-.84-1.79l-21.9-17.91a2.32,2.32,0,0,1,.14-3.68l7.61-5.33a2.3,2.3,0,0,0,.92-2.45L302.73,71.1a2.36,2.36,0,0,0-1.21-1.51L280.69,59.18a2.29,2.29,0,0,0-2.07,0L273,62a2.31,2.31,0,0,1-3.23-1.39L266,48.45l0-.12-4.36-17.42a2.31,2.31,0,0,0-.81-1.26l-15-11.75a2.37,2.37,0,0,0-.87-.43l-26.3-6.57a2.29,2.29,0,0,0-1.19,0l-14.78,4.22a2.32,2.32,0,0,0-1,.62l-46.2,48.45a2.91,2.91,0,0,0-.26.33L138,90.9a2.31,2.31,0,0,1-3.93-.1l-5.56-9.53a2.3,2.3,0,0,1-.17-2l8-22.12a2.31,2.31,0,0,0-1.17-2.87L83.56,29.61a2.28,2.28,0,0,0-2.38.23L69.82,38.36a2.31,2.31,0,0,1-2.53.15l-14.07-8A2.32,2.32,0,0,0,52,30.17l-19.85,1a2.3,2.3,0,0,0-2.19,2.4l1,23a2.3,2.3,0,0,1-.57,1.62L23.28,66.3a2.39,2.39,0,0,0-.45.79L16.31,86.64a2.19,2.19,0,0,0-.08,1.11l3,18a2.31,2.31,0,0,0,2.34,1.93l81.31-2.2a2.32,2.32,0,0,1,1.82.81l3.72,4.34a2.31,2.31,0,0,1-1.18,3.73l-31,8a2.41,2.41,0,0,1-1.5-.12l-16.36-7.16a2.29,2.29,0,0,0-2.21.19L40.78,125.51a2.24,2.24,0,0,0-.93,1.25l-3,9.88a2.31,2.31,0,0,1-.84,1.19L11.94,155.65a2.31,2.31,0,0,0-.73,2.82l25,54.34a2.3,2.3,0,0,0,1.52,1.27l31.41,8.11A2.31,2.31,0,0,0,72,220h0a2.31,2.31,0,0,1,2.69-2.28L85,219.4a2.22,2.22,0,0,1,1.2.6L106,238.67a2.12,2.12,0,0,0,.55.39l33.59,16.8a2.43,2.43,0,0,0,.68.21L155,258.25a2.35,2.35,0,0,0,.59,0l18.83-2a2.3,2.3,0,0,1,2.55,2.29v64.07a2.31,2.31,0,0,0,1.77,2.24L203,330.7a2.31,2.31,0,0,0,2.83-2L211,282a2.31,2.31,0,0,1,2.29-2.06h17.64a2.32,2.32,0,0,1,2.28,1.95l2.84,18a2.3,2.3,0,0,0,2,1.93l17.16,2a2.27,2.27,0,0,0,1-.09L283,295.2a2.35,2.35,0,0,0,1.54-1.64l9.75-39a2.31,2.31,0,0,0-.18-1.59l-9.61-19.21a2.29,2.29,0,0,1-.23-1.18l.16-2.57a2.3,2.3,0,0,1,1.72-2.09l5.78-1.49a2.22,2.22,0,0,1,.57-.07h6.05a2.3,2.3,0,0,0,2.18-1.56L311,195.16a2.31,2.31,0,0,0-1.12-2.8l-25.51-13.27a2.32,2.32,0,0,1-1.24-2.05v-2.48a2.3,2.3,0,0,1,2.86-2.24l10.31,2.57a2.28,2.28,0,0,0,1,0l11.63-2.49a2.31,2.31,0,0,0,1.26-3.77l-9-10.34a2.3,2.3,0,0,1,1.74-3.82h9.2a2.31,2.31,0,0,1,1.09.27l28.55,15.3a2.31,2.31,0,0,0,3.37-1.68l3.61-23.44a2.31,2.31,0,0,0-2.55-2.65l-15.5,1.83A2.32,2.32,0,0,1,329.12,143.7Z"/><path class="cls-2" d="M329.12,143.7l-6.29-4.49a2.32,2.32,0,0,1-1-1.88V122.5a2.33,2.33,0,0,0-.84-1.79l-21.9-17.91a2.32,2.32,0,0,1,.14-3.68l7.61-5.33a2.3,2.3,0,0,0,.92-2.45L302.73,71.1a2.36,2.36,0,0,0-1.21-1.51L280.69,59.18a2.29,2.29,0,0,0-2.07,0L273,62a2.31,2.31,0,0,1-3.23-1.39L266,48.45l0-.12-4.36-17.42a2.31,2.31,0,0,0-.81-1.26l-15-11.75a2.37,2.37,0,0,0-.87-.43l-26.3-6.57a2.29,2.29,0,0,0-1.19,0l-14.78,4.22a2.32,2.32,0,0,0-1,.62l-46.2,48.45a2.91,2.91,0,0,0-.26.33L138,90.9a2.31,2.31,0,0,1-3.93-.1l-5.56-9.53a2.3,2.3,0,0,1-.17-2l8-22.12a2.31,2.31,0,0,0-1.17-2.87L83.56,29.61a2.28,2.28,0,0,0-2.38.23L69.82,38.36a2.31,2.31,0,0,1-2.53.15l-14.07-8A2.32,2.32,0,0,0,52,30.17l-19.85,1a2.3,2.3,0,0,0-2.19,2.4l1,23a2.3,2.3,0,0,1-.57,1.62L23.28,66.3a2.39,2.39,0,0,0-.45.79L16.31,86.64a2.19,2.19,0,0,0-.08,1.11l3,18a2.31,2.31,0,0,0,2.34,1.93l81.31-2.2a2.32,2.32,0,0,1,1.82.81l3.72,4.34a2.31,2.31,0,0,1-1.18,3.73l-31,8a2.41,2.41,0,0,1-1.5-.12l-16.36-7.16a2.29,2.29,0,0,0-2.21.19L40.78,125.51a2.24,2.24,0,0,0-.93,1.25l-3,9.88a2.31,2.31,0,0,1-.84,1.19L11.94,155.65a2.31,2.31,0,0,0-.73,2.82l25,54.34a2.3,2.3,0,0,0,1.52,1.27l31.41,8.11A2.31,2.31,0,0,0,72,220h0a2.31,2.31,0,0,1,2.69-2.28L85,219.4a2.22,2.22,0,0,1,1.2.6L106,238.67a2.12,2.12,0,0,0,.55.39l33.59,16.8a2.43,2.43,0,0,0,.68.21L155,258.25a2.35,2.35,0,0,0,.59,0l18.83-2a2.3,2.3,0,0,1,2.55,2.29v64.07a2.31,2.31,0,0,0,1.77,2.24L203,330.7a2.31,2.31,0,0,0,2.83-2L211,282a2.31,2.31,0,0,1,2.29-2.06h17.64a2.32,2.32,0,0,1,2.28,1.95l2.84,18a2.3,2.3,0,0,0,2,1.93l17.16,2a2.27,2.27,0,0,0,1-.09L283,295.2a2.35,2.35,0,0,0,1.54-1.64l9.75-39a2.31,2.31,0,0,0-.18-1.59l-9.61-19.21a2.29,2.29,0,0,1-.23-1.18l.16-2.57a2.3,2.3,0,0,1,1.72-2.09l5.78-1.49a2.22,2.22,0,0,1,.57-.07h6.05a2.3,2.3,0,0,0,2.18-1.56L311,195.16a2.31,2.31,0,0,0-1.12-2.8l-25.51-13.27a2.32,2.32,0,0,1-1.24-2.05v-2.48a2.3,2.3,0,0,1,2.86-2.24l10.31,2.57a2.28,2.28,0,0,0,1,0l11.63-2.49a2.31,2.31,0,0,0,1.26-3.77l-9-10.34a2.3,2.3,0,0,1,1.74-3.82h9.2a2.31,2.31,0,0,1,1.09.27l28.55,15.3a2.31,2.31,0,0,0,3.37-1.68l3.61-23.44a2.31,2.31,0,0,0-2.55-2.65l-15.5,1.83A2.32,2.32,0,0,1,329.12,143.7Z"/><path class="cls-2" d="M178.75,324.89,203,330.7a2.31,2.31,0,0,0,2.83-2L211,282a2.31,2.31,0,0,1,2.29-2.06h17.64a2.32,2.32,0,0,1,2.28,1.95l2.84,18a2.3,2.3,0,0,0,2,1.93l17.16,2a2.27,2.27,0,0,0,1-.09L283,295.2a2.35,2.35,0,0,0,1.54-1.64l9.75-39a2.31,2.31,0,0,0-.18-1.59l-9.61-19.21a2.29,2.29,0,0,1-.23-1.18l1-15.65a2.3,2.3,0,0,0-1.81-2.4l-23.57-5.13a2.3,2.3,0,0,1-1.23-.71l-8.28-9.2a2.31,2.31,0,0,0-3.19-.23l-10.24,8.53a2.3,2.3,0,0,1-3.23-.27l-11.26-13.14a2.3,2.3,0,0,0-2.35-.73l-27,7.26a2.32,2.32,0,0,0-1.62,1.63l-14.41,53.18a2.47,2.47,0,0,0-.08.6v66.33A2.31,2.31,0,0,0,178.75,324.89Z"/><path class="cls-2" d="M178.75,324.89,203,330.7a2.31,2.31,0,0,0,2.83-2L211,282a2.31,2.31,0,0,1,2.29-2.06h17.64a2.32,2.32,0,0,1,2.28,1.95l2.84,18a2.3,2.3,0,0,0,2,1.93l17.16,2a2.27,2.27,0,0,0,1-.09L283,295.2a2.35,2.35,0,0,0,1.54-1.64l9.75-39a2.31,2.31,0,0,0-.18-1.59l-9.61-19.21a2.29,2.29,0,0,1-.23-1.18l1-15.65a2.3,2.3,0,0,0-1.81-2.4l-23.57-5.13a2.3,2.3,0,0,1-1.23-.71l-8.28-9.2a2.31,2.31,0,0,0-3.19-.23l-10.24,8.53a2.3,2.3,0,0,1-3.23-.27l-11.26-13.14a2.3,2.3,0,0,0-2.35-.73l-27,7.26a2.32,2.32,0,0,0-1.62,1.63l-14.41,53.18a2.47,2.47,0,0,0-.08.6v66.33A2.31,2.31,0,0,0,178.75,324.89Z"/><path class="cls-2" d="M169.27,139.28v10.79h-1.41v-9.62h-3.57v3.27c0,2.33-.09,4.94-1.61,6a3.32,3.32,0,0,1-1.65.51l-.18-1.12a2.52,2.52,0,0,0,1.14-.58c.86-.85.94-2.94.94-4.67v-4.55Z"/><path class="cls-2" d="M173,142.32V145a7.2,7.2,0,0,1,1.28-.08c1.74,0,3.58.54,3.58,2.61a2.19,2.19,0,0,1-.81,1.77,5.33,5.33,0,0,1-3.36.9,20.48,20.48,0,0,1-2.09-.11v-7.72Zm0,6.77a6.66,6.66,0,0,0,1,.07c1.05,0,2.41-.35,2.41-1.65s-1.4-1.63-2.45-1.63a6.33,6.33,0,0,0-1,.08Z"/><path class="cls-2" d="M179.57,142.42a16.08,16.08,0,0,1,2.47-.18c1.29,0,3.44.21,3.44,1.94a1.85,1.85,0,0,1-1.62,1.75v0c1.14.16,2,.8,2,1.92,0,2-2.56,2.29-4.08,2.29-.87,0-1.76-.07-2.18-.1Zm1.33,6.72a8.21,8.21,0,0,0,1.14.07c.94,0,2.35-.23,2.35-1.35s-1.12-1.36-2.47-1.36h-1Zm0-3.57H182c1,0,2.12-.3,2.12-1.21s-.68-1.14-2.09-1.14a10.42,10.42,0,0,0-1.08.06Z"/><path class="cls-2" d="M189.17,140.15a.82.82,0,0,1-.89.86.83.83,0,0,1-.85-.86.86.86,0,0,1,.88-.88A.83.83,0,0,1,189.17,140.15Zm-1.57,9.92v-7.75H189v7.75Z"/><path class="cls-2" d="M191.32,142.42a15.83,15.83,0,0,1,2.46-.18c1.3,0,3.44.21,3.44,1.94a1.84,1.84,0,0,1-1.61,1.75v0c1.13.16,2,.8,2,1.92,0,2-2.56,2.29-4.08,2.29-.86,0-1.76-.07-2.17-.1Zm1.32,6.72a8.21,8.21,0,0,0,1.14.07c.95,0,2.35-.23,2.35-1.35s-1.12-1.36-2.46-1.36h-1Zm0-3.57h1.06c1,0,2.11-.3,2.11-1.21s-.67-1.14-2.08-1.14a10.8,10.8,0,0,0-1.09.06Z"/><path class="cls-2" d="M169.27,139.28v10.79h-1.41v-9.62h-3.57v3.27c0,2.33-.09,4.94-1.61,6a3.32,3.32,0,0,1-1.65.51l-.18-1.12a2.52,2.52,0,0,0,1.14-.58c.86-.85.94-2.94.94-4.67v-4.55Z"/><path class="cls-2" d="M173,142.32V145a7.2,7.2,0,0,1,1.28-.08c1.74,0,3.58.54,3.58,2.61a2.19,2.19,0,0,1-.81,1.77,5.33,5.33,0,0,1-3.36.9,20.48,20.48,0,0,1-2.09-.11v-7.72Zm0,6.77a6.66,6.66,0,0,0,1,.07c1.05,0,2.41-.35,2.41-1.65s-1.4-1.63-2.45-1.63a6.33,6.33,0,0,0-1,.08Z"/><path class="cls-2" d="M179.57,142.42a16.08,16.08,0,0,1,2.47-.18c1.29,0,3.44.21,3.44,1.94a1.85,1.85,0,0,1-1.62,1.75v0c1.14.16,2,.8,2,1.92,0,2-2.56,2.29-4.08,2.29-.87,0-1.76-.07-2.18-.1Zm1.33,6.72a8.21,8.21,0,0,0,1.14.07c.94,0,2.35-.23,2.35-1.35s-1.12-1.36-2.47-1.36h-1Zm0-3.57H182c1,0,2.12-.3,2.12-1.21s-.68-1.14-2.09-1.14a10.42,10.42,0,0,0-1.08.06Z"/><path class="cls-2" d="M189.17,140.15a.82.82,0,0,1-.89.86.83.83,0,0,1-.85-.86.86.86,0,0,1,.88-.88A.83.83,0,0,1,189.17,140.15Zm-1.57,9.92v-7.75H189v7.75Z"/><path class="cls-2" d="M191.32,142.42a15.83,15.83,0,0,1,2.46-.18c1.3,0,3.44.21,3.44,1.94a1.84,1.84,0,0,1-1.61,1.75v0c1.13.16,2,.8,2,1.92,0,2-2.56,2.29-4.08,2.29-.86,0-1.76-.07-2.17-.1Zm1.32,6.72a8.21,8.21,0,0,0,1.14.07c.95,0,2.35-.23,2.35-1.35s-1.12-1.36-2.46-1.36h-1Zm0-3.57h1.06c1,0,2.11-.3,2.11-1.21s-.67-1.14-2.08-1.14a10.8,10.8,0,0,0-1.09.06Z"/><path class="cls-2" d="M169.27,139.28v10.79h-1.41v-9.62h-3.57v3.27c0,2.33-.09,4.94-1.61,6a3.32,3.32,0,0,1-1.65.51l-.18-1.12a2.52,2.52,0,0,0,1.14-.58c.86-.85.94-2.94.94-4.67v-4.55Z"/><path class="cls-2" d="M173,142.32V145a7.2,7.2,0,0,1,1.28-.08c1.74,0,3.58.54,3.58,2.61a2.19,2.19,0,0,1-.81,1.77,5.33,5.33,0,0,1-3.36.9,20.48,20.48,0,0,1-2.09-.11v-7.72Zm0,6.77a6.66,6.66,0,0,0,1,.07c1.05,0,2.41-.35,2.41-1.65s-1.4-1.63-2.45-1.63a6.33,6.33,0,0,0-1,.08Z"/><path class="cls-2" d="M179.57,142.42a16.08,16.08,0,0,1,2.47-.18c1.29,0,3.44.21,3.44,1.94a1.85,1.85,0,0,1-1.62,1.75v0c1.14.16,2,.8,2,1.92,0,2-2.56,2.29-4.08,2.29-.87,0-1.76-.07-2.18-.1Zm1.33,6.72a8.21,8.21,0,0,0,1.14.07c.94,0,2.35-.23,2.35-1.35s-1.12-1.36-2.47-1.36h-1Zm0-3.57H182c1,0,2.12-.3,2.12-1.21s-.68-1.14-2.09-1.14a10.42,10.42,0,0,0-1.08.06Z"/><path class="cls-2" d="M189.17,140.15a.82.82,0,0,1-.89.86.83.83,0,0,1-.85-.86.86.86,0,0,1,.88-.88A.83.83,0,0,1,189.17,140.15Zm-1.57,9.92v-7.75H189v7.75Z"/><path class="cls-2" d="M191.32,142.42a15.83,15.83,0,0,1,2.46-.18c1.3,0,3.44.21,3.44,1.94a1.84,1.84,0,0,1-1.61,1.75v0c1.13.16,2,.8,2,1.92,0,2-2.56,2.29-4.08,2.29-.86,0-1.76-.07-2.17-.1Zm1.32,6.72a8.21,8.21,0,0,0,1.14.07c.95,0,2.35-.23,2.35-1.35s-1.12-1.36-2.46-1.36h-1Zm0-3.57h1.06c1,0,2.11-.3,2.11-1.21s-.67-1.14-2.08-1.14a10.8,10.8,0,0,0-1.09.06Z"/><path class="cls-2" d="M220.68,250.72a6.86,6.86,0,0,1-2.85.51c-3,0-5.33-1.92-5.33-5.46a5.37,5.37,0,0,1,5.63-5.66,5.7,5.7,0,0,1,2.57.48l-.34,1.13a5.18,5.18,0,0,0-2.18-.44c-2.53,0-4.21,1.61-4.21,4.45,0,2.64,1.52,4.33,4.15,4.33a5.43,5.43,0,0,0,2.27-.45Z"/><path class="cls-2" d="M223.67,243.32v3.27c0,1.23,0,2-.08,3.1l0,0c.46-.94.73-1.49,1.24-2.38l2.42-4H229v7.75h-1.34v-3.28c0-1.26,0-1.92.09-3.17h0c-.49,1-.83,1.62-1.28,2.4-.73,1.2-1.58,2.69-2.41,4h-1.62v-7.75Z"/><path class="cls-2" d="M231.89,243.32,233,245c.29.43.52.83.78,1.26h.05c.25-.46.51-.86.77-1.28l1.09-1.65h1.52l-2.64,3.75,2.72,4h-1.6l-1.14-1.74c-.3-.45-.56-.88-.83-1.35h0c-.25.47-.52.88-.81,1.35l-1.12,1.74H230.2l2.75-3.95-2.63-3.8Z"/><path class="cls-2" d="M240.21,241.15a.82.82,0,0,1-.89.86.83.83,0,0,1-.85-.86.86.86,0,0,1,.88-.88A.83.83,0,0,1,240.21,241.15Zm-1.57,9.92v-7.75h1.41v7.75Z"/><path class="cls-2" d="M242.36,243.42a15.83,15.83,0,0,1,2.46-.18c1.3,0,3.44.21,3.44,1.94a1.84,1.84,0,0,1-1.62,1.75v0c1.14.16,2,.8,2,1.92,0,2-2.56,2.29-4.08,2.29-.86,0-1.76-.07-2.17-.1Zm1.32,6.72a8.21,8.21,0,0,0,1.14.07c.94,0,2.35-.23,2.35-1.35s-1.12-1.36-2.46-1.36h-1Zm0-3.57h1.06c1,0,2.11-.3,2.11-1.21s-.67-1.14-2.08-1.14a10.63,10.63,0,0,0-1.09.06Z"/><path class="cls-2" d="M220.68,250.72a6.86,6.86,0,0,1-2.85.51c-3,0-5.33-1.92-5.33-5.46a5.37,5.37,0,0,1,5.63-5.66,5.7,5.7,0,0,1,2.57.48l-.34,1.13a5.18,5.18,0,0,0-2.18-.44c-2.53,0-4.21,1.61-4.21,4.45,0,2.64,1.52,4.33,4.15,4.33a5.43,5.43,0,0,0,2.27-.45Z"/><path class="cls-2" d="M223.67,243.32v3.27c0,1.23,0,2-.08,3.1l0,0c.46-.94.73-1.49,1.24-2.38l2.42-4H229v7.75h-1.34v-3.28c0-1.26,0-1.92.09-3.17h0c-.49,1-.83,1.62-1.28,2.4-.73,1.2-1.58,2.69-2.41,4h-1.62v-7.75Z"/><path class="cls-2" d="M231.89,243.32,233,245c.29.43.52.83.78,1.26h.05c.25-.46.51-.86.77-1.28l1.09-1.65h1.52l-2.64,3.75,2.72,4h-1.6l-1.14-1.74c-.3-.45-.56-.88-.83-1.35h0c-.25.47-.52.88-.81,1.35l-1.12,1.74H230.2l2.75-3.95-2.63-3.8Z"/><path class="cls-2" d="M240.21,241.15a.82.82,0,0,1-.89.86.83.83,0,0,1-.85-.86.86.86,0,0,1,.88-.88A.83.83,0,0,1,240.21,241.15Zm-1.57,9.92v-7.75h1.41v7.75Z"/><path class="cls-2" d="M242.36,243.42a15.83,15.83,0,0,1,2.46-.18c1.3,0,3.44.21,3.44,1.94a1.84,1.84,0,0,1-1.62,1.75v0c1.14.16,2,.8,2,1.92,0,2-2.56,2.29-4.08,2.29-.86,0-1.76-.07-2.17-.1Zm1.32,6.72a8.21,8.21,0,0,0,1.14.07c.94,0,2.35-.23,2.35-1.35s-1.12-1.36-2.46-1.36h-1Zm0-3.57h1.06c1,0,2.11-.3,2.11-1.21s-.67-1.14-2.08-1.14a10.63,10.63,0,0,0-1.09.06Z"/><path class="cls-2" d="M220.68,250.72a6.86,6.86,0,0,1-2.85.51c-3,0-5.33-1.92-5.33-5.46a5.37,5.37,0,0,1,5.63-5.66,5.7,5.7,0,0,1,2.57.48l-.34,1.13a5.18,5.18,0,0,0-2.18-.44c-2.53,0-4.21,1.61-4.21,4.45,0,2.64,1.52,4.33,4.15,4.33a5.43,5.43,0,0,0,2.27-.45Z"/><path class="cls-2" d="M223.67,243.32v3.27c0,1.23,0,2-.08,3.1l0,0c.46-.94.73-1.49,1.24-2.38l2.42-4H229v7.75h-1.34v-3.28c0-1.26,0-1.92.09-3.17h0c-.49,1-.83,1.62-1.28,2.4-.73,1.2-1.58,2.69-2.41,4h-1.62v-7.75Z"/><path class="cls-2" d="M231.89,243.32,233,245c.29.43.52.83.78,1.26h.05c.25-.46.51-.86.77-1.28l1.09-1.65h1.52l-2.64,3.75,2.72,4h-1.6l-1.14-1.74c-.3-.45-.56-.88-.83-1.35h0c-.25.47-.52.88-.81,1.35l-1.12,1.74H230.2l2.75-3.95-2.63-3.8Z"/><path class="cls-2" d="M240.21,241.15a.82.82,0,0,1-.89.86.83.83,0,0,1-.85-.86.86.86,0,0,1,.88-.88A.83.83,0,0,1,240.21,241.15Zm-1.57,9.92v-7.75h1.41v7.75Z"/><path class="cls-2" d="M242.36,243.42a15.83,15.83,0,0,1,2.46-.18c1.3,0,3.44.21,3.44,1.94a1.84,1.84,0,0,1-1.62,1.75v0c1.14.16,2,.8,2,1.92,0,2-2.56,2.29-4.08,2.29-.86,0-1.76-.07-2.17-.1Zm1.32,6.72a8.21,8.21,0,0,0,1.14.07c.94,0,2.35-.23,2.35-1.35s-1.12-1.36-2.46-1.36h-1Zm0-3.57h1.06c1,0,2.11-.3,2.11-1.21s-.67-1.14-2.08-1.14a10.63,10.63,0,0,0-1.09.06Z"/><g class="cls-3"><path d="M336.12,150.7l-6.29-4.49a2.32,2.32,0,0,1-1-1.88V129.5a2.33,2.33,0,0,0-.84-1.79l-21.9-17.91a2.32,2.32,0,0,1,.14-3.68l7.61-5.33a2.3,2.3,0,0,0,.92-2.45L309.73,78.1a2.36,2.36,0,0,0-1.21-1.51L287.69,66.18a2.29,2.29,0,0,0-2.07,0L280,69a2.31,2.31,0,0,1-3.23-1.39L273,55.45l0-.12-4.36-17.42a2.31,2.31,0,0,0-.81-1.26l-15-11.75a2.37,2.37,0,0,0-.87-.43l-26.3-6.57a2.29,2.29,0,0,0-1.19,0l-14.78,4.22a2.32,2.32,0,0,0-1,.62l-46.2,48.45a2.91,2.91,0,0,0-.26.33L145,97.9a2.31,2.31,0,0,1-3.93-.1l-5.56-9.53a2.3,2.3,0,0,1-.17-2l8-22.12a2.31,2.31,0,0,0-1.17-2.87L90.56,36.61a2.28,2.28,0,0,0-2.38.23L76.82,45.36a2.31,2.31,0,0,1-2.53.15l-14.07-8A2.32,2.32,0,0,0,59,37.17l-19.85,1a2.3,2.3,0,0,0-2.19,2.4l1,23a2.3,2.3,0,0,1-.57,1.62L30.28,73.3a2.39,2.39,0,0,0-.45.79L23.31,93.64a2.19,2.19,0,0,0-.08,1.11l3,18a2.31,2.31,0,0,0,2.34,1.93l81.31-2.2a2.32,2.32,0,0,1,1.82.81l3.72,4.34a2.31,2.31,0,0,1-1.18,3.73l-31,8a2.41,2.41,0,0,1-1.5-.12l-16.36-7.16a2.29,2.29,0,0,0-2.21.19L47.78,132.51a2.24,2.24,0,0,0-.93,1.25l-3,9.88a2.31,2.31,0,0,1-.84,1.19L18.94,162.65a2.31,2.31,0,0,0-.73,2.82l25,54.34a2.3,2.3,0,0,0,1.52,1.27l31.41,8.11A2.31,2.31,0,0,0,79,227h0a2.31,2.31,0,0,1,2.69-2.28L92,226.4a2.22,2.22,0,0,1,1.2.6L113,245.67a2.12,2.12,0,0,0,.55.39l33.59,16.8a2.43,2.43,0,0,0,.68.21L162,265.25a2.35,2.35,0,0,0,.59,0l18.83-2a2.3,2.3,0,0,1,2.55,2.29v64.07a2.31,2.31,0,0,0,1.77,2.24L210,337.7a2.31,2.31,0,0,0,2.83-2L218,289a2.31,2.31,0,0,1,2.29-2.06h17.64a2.32,2.32,0,0,1,2.28,1.95l2.84,18a2.3,2.3,0,0,0,2,1.93l17.16,2a2.27,2.27,0,0,0,1-.09L290,302.2a2.35,2.35,0,0,0,1.54-1.64l9.75-39a2.31,2.31,0,0,0-.18-1.59l-9.61-19.21a2.29,2.29,0,0,1-.23-1.18l.16-2.57a2.3,2.3,0,0,1,1.72-2.09l5.78-1.49a2.22,2.22,0,0,1,.57-.07h6.05a2.3,2.3,0,0,0,2.18-1.56L318,202.16a2.31,2.31,0,0,0-1.12-2.8l-25.51-13.27a2.32,2.32,0,0,1-1.24-2.05v-2.48a2.3,2.3,0,0,1,2.86-2.24l10.31,2.57a2.28,2.28,0,0,0,1,0l11.63-2.49a2.31,2.31,0,0,0,1.26-3.77l-9-10.34a2.3,2.3,0,0,1,1.74-3.82h9.2a2.31,2.31,0,0,1,1.09.27l28.55,15.3a2.31,2.31,0,0,0,3.37-1.68l3.61-23.44a2.31,2.31,0,0,0-2.55-2.65l-15.5,1.83A2.32,2.32,0,0,1,336.12,150.7Z"/><path d="M210.5,338.26a3,3,0,0,1-.66-.07l-24.2-5.81a2.81,2.81,0,0,1-2.16-2.73V265.58a1.75,1.75,0,0,0-.6-1.34,1.84,1.84,0,0,0-1.4-.46l-18.82,2a3.47,3.47,0,0,1-.72,0l-14.18-2.18a3,3,0,0,1-.83-.27l-33.6-16.79a3.51,3.51,0,0,1-.67-.47L92.89,227.36a1.78,1.78,0,0,0-1-.47l-10.3-1.72A1.82,1.82,0,0,0,79.53,227,2.8,2.8,0,0,1,76,229.67l-31.42-8.1A2.84,2.84,0,0,1,42.75,220l-25-54.34a2.81,2.81,0,0,1,.88-3.43l24.11-17.82a1.82,1.82,0,0,0,.66-.93l3-9.88a2.85,2.85,0,0,1,1.13-1.53l15.37-10.25a2.8,2.8,0,0,1,2.69-.23l16.36,7.16a1.84,1.84,0,0,0,1.18.09l31-8a1.82,1.82,0,0,0,1.27-1.21,1.79,1.79,0,0,0-.35-1.72l-3.72-4.34a1.79,1.79,0,0,0-1.42-.63l-81.31,2.2a2.84,2.84,0,0,1-2.85-2.35l-3-18a2.81,2.81,0,0,1,.11-1.35l6.51-19.55a2.73,2.73,0,0,1,.56-1L37,64.89a1.84,1.84,0,0,0,.44-1.27l-1-23a2.81,2.81,0,0,1,2.67-2.92l19.85-1a2.75,2.75,0,0,1,1.53.36l14.07,8a1.81,1.81,0,0,0,2-.12l11.36-8.52a2.8,2.8,0,0,1,2.89-.29l51.61,24.73a2.8,2.8,0,0,1,1.43,3.5l-8,22.11a1.76,1.76,0,0,0,.14,1.53l5.55,9.53a1.8,1.8,0,0,0,1.52.89,1.84,1.84,0,0,0,1.56-.81l17.23-26.36a2.55,2.55,0,0,1,.32-.4l46.2-48.45a2.73,2.73,0,0,1,1.26-.76l14.77-4.22a2.74,2.74,0,0,1,1.45,0L252.07,24a2.82,2.82,0,0,1,1.06.51l15,11.76a2.81,2.81,0,0,1,1,1.53l4.35,17.42,3.77,12.26a1.82,1.82,0,0,0,1,1.13,1.8,1.8,0,0,0,1.52,0l5.66-2.83a2.84,2.84,0,0,1,2.51,0l20.83,10.42A2.77,2.77,0,0,1,310.21,78l5.06,20.24a2.81,2.81,0,0,1-1.11,3l-7.61,5.33a1.81,1.81,0,0,0-.11,2.88l21.89,17.91a2.79,2.79,0,0,1,1,2.18v14.83a1.83,1.83,0,0,0,.76,1.47l6.29,4.49a1.8,1.8,0,0,0,1.27.33l15.49-1.82a2.8,2.8,0,0,1,3.1,3.21l-3.6,23.44a2.81,2.81,0,0,1-1.52,2.09,2.77,2.77,0,0,1-2.58,0L320,162.2a1.81,1.81,0,0,0-.85-.21H310a1.81,1.81,0,0,0-1.37,3l9,10.34a2.81,2.81,0,0,1-1.54,4.59l-11.63,2.49a2.82,2.82,0,0,1-1.26,0l-10.31-2.58a1.8,1.8,0,0,0-2.24,1.76V184a1.81,1.81,0,0,0,1,1.61l25.51,13.26a2.82,2.82,0,0,1,1.36,3.41L308.2,232a2.81,2.81,0,0,1-2.66,1.9h-6.05a2.3,2.3,0,0,0-.45,0l-5.77,1.49a1.79,1.79,0,0,0-1.35,1.64l-.17,2.57a1.82,1.82,0,0,0,.19.92l9.61,19.22a2.83,2.83,0,0,1,.21,1.94l-9.75,39a2.77,2.77,0,0,1-1.86,2l-26.82,8.58a2.68,2.68,0,0,1-1.19.12l-17.16-2a2.81,2.81,0,0,1-2.44-2.35l-2.85-18a1.8,1.8,0,0,0-1.78-1.53H220.27a1.81,1.81,0,0,0-1.79,1.61l-5.19,46.69a2.81,2.81,0,0,1-2.79,2.49Zm-28.83-75.49a2.81,2.81,0,0,1,2.81,2.81v64.07a1.8,1.8,0,0,0,1.39,1.75l24.21,5.81a1.81,1.81,0,0,0,1.46-.28,1.77,1.77,0,0,0,.75-1.28L217.48,289a2.81,2.81,0,0,1,2.79-2.5h17.64a2.79,2.79,0,0,1,2.77,2.37l2.84,18a1.84,1.84,0,0,0,1.58,1.52l17.16,2a1.78,1.78,0,0,0,.76-.08l26.82-8.58a1.78,1.78,0,0,0,1.2-1.28l9.75-39a1.72,1.72,0,0,0-.14-1.24L291.05,241a2.83,2.83,0,0,1-.29-1.43l.16-2.57a2.8,2.8,0,0,1,2.1-2.55l5.77-1.48a2.8,2.8,0,0,1,.7-.09h6.05a1.81,1.81,0,0,0,1.71-1.22L317.47,202a1.81,1.81,0,0,0-.87-2.19l-25.51-13.27a2.8,2.8,0,0,1-1.51-2.49v-2.48a2.8,2.8,0,0,1,3.48-2.73l10.31,2.58a1.89,1.89,0,0,0,.82,0l11.62-2.49a1.81,1.81,0,0,0,1-3l-9-10.35A2.81,2.81,0,0,1,310,161h9.2a2.75,2.75,0,0,1,1.32.33L349,176.62a1.81,1.81,0,0,0,2.64-1.32l3.61-23.44a1.81,1.81,0,0,0-2-2.07l-15.5,1.82a2.75,2.75,0,0,1-2-.5l-6.29-4.5a2.8,2.8,0,0,1-1.18-2.28V129.5a1.79,1.79,0,0,0-.66-1.4l-21.89-17.91a2.81,2.81,0,0,1,.17-4.48l7.61-5.32a1.82,1.82,0,0,0,.71-1.92l-5.06-20.25A1.83,1.83,0,0,0,308.3,77L287.46,66.62a1.82,1.82,0,0,0-1.61,0l-5.66,2.83a2.81,2.81,0,0,1-3.94-1.68l-3.79-12.31L268.11,38a1.77,1.77,0,0,0-.64-1l-15-11.76a1.72,1.72,0,0,0-.68-.33l-26.3-6.58a1.87,1.87,0,0,0-.94,0l-14.77,4.22a1.83,1.83,0,0,0-.81.49l-46.2,48.45a1.79,1.79,0,0,0-.2.26L145.38,98.17A2.81,2.81,0,0,1,143,99.44a2.76,2.76,0,0,1-2.35-1.39L135,88.52a2.78,2.78,0,0,1-.21-2.37l8-22.12a1.8,1.8,0,0,0-.92-2.24L90.34,37.06a1.77,1.77,0,0,0-1.86.18L77.12,45.76A2.81,2.81,0,0,1,74,46L60,37.91a1.85,1.85,0,0,0-1-.24l-19.85,1a1.81,1.81,0,0,0-1.72,1.88l1,23a2.81,2.81,0,0,1-.69,2l-7.07,8.08a1.89,1.89,0,0,0-.36.61L23.79,93.79a1.72,1.72,0,0,0-.07.87l3,18a1.8,1.8,0,0,0,1.83,1.51l81.31-2.2a2.79,2.79,0,0,1,2.21,1l3.72,4.34a2.82,2.82,0,0,1-1.43,4.55l-31,8a2.74,2.74,0,0,1-1.83-.15l-16.36-7.16a1.78,1.78,0,0,0-1.73.16L48.06,132.92a1.82,1.82,0,0,0-.73,1l-3,9.87a2.8,2.8,0,0,1-1,1.45L19.23,163.06a1.81,1.81,0,0,0-.56,2.21l25,54.33a1.81,1.81,0,0,0,1.19,1l31.42,8.11A1.82,1.82,0,0,0,78.53,227a2.79,2.79,0,0,1,3.27-2.77l10.31,1.71a2.86,2.86,0,0,1,1.46.73l19.78,18.68a1.84,1.84,0,0,0,.43.3l33.6,16.8a2,2,0,0,0,.53.17l14.18,2.18a1.77,1.77,0,0,0,.46,0l18.83-2Z"/></g><path class="cls-4" d="M329.12,143.7l-6.29-4.49a2.32,2.32,0,0,1-1-1.88V122.5a2.33,2.33,0,0,0-.84-1.79l-21.9-17.91a2.32,2.32,0,0,1,.14-3.68l7.61-5.33a2.3,2.3,0,0,0,.92-2.45L302.73,71.1a2.36,2.36,0,0,0-1.21-1.51L280.69,59.18a2.29,2.29,0,0,0-2.07,0L273,62a2.31,2.31,0,0,1-3.23-1.39L266,48.45l0-.12-4.36-17.42a2.31,2.31,0,0,0-.81-1.26l-15-11.75a2.37,2.37,0,0,0-.87-.43l-26.3-6.57a2.29,2.29,0,0,0-1.19,0l-14.78,4.22a2.32,2.32,0,0,0-1,.62l-46.2,48.45a2.91,2.91,0,0,0-.26.33L138,90.9a2.31,2.31,0,0,1-3.93-.1l-5.56-9.53a2.3,2.3,0,0,1-.17-2l8-22.12a2.31,2.31,0,0,0-1.17-2.87L83.56,29.61a2.28,2.28,0,0,0-2.38.23L69.82,38.36a2.31,2.31,0,0,1-2.53.15l-14.07-8A2.32,2.32,0,0,0,52,30.17l-19.85,1a2.3,2.3,0,0,0-2.19,2.4l1,23a2.3,2.3,0,0,1-.57,1.62L23.28,66.3a2.39,2.39,0,0,0-.45.79L16.31,86.64a2.19,2.19,0,0,0-.08,1.11l3,18a2.31,2.31,0,0,0,2.34,1.93l81.31-2.2a2.32,2.32,0,0,1,1.82.81l3.72,4.34a2.31,2.31,0,0,1-1.18,3.73l-31,8a2.41,2.41,0,0,1-1.5-.12l-16.36-7.16a2.29,2.29,0,0,0-2.21.19L40.78,125.51a2.24,2.24,0,0,0-.93,1.25l-3,9.88a2.31,2.31,0,0,1-.84,1.19L11.94,155.65a2.31,2.31,0,0,0-.73,2.82l25,54.34a2.3,2.3,0,0,0,1.52,1.27l31.41,8.11A2.31,2.31,0,0,0,72,220h0a2.31,2.31,0,0,1,2.69-2.28L85,219.4a2.22,2.22,0,0,1,1.2.6L106,238.67a2.12,2.12,0,0,0,.55.39l33.59,16.8a2.43,2.43,0,0,0,.68.21L155,258.25a2.35,2.35,0,0,0,.59,0l18.83-2a2.3,2.3,0,0,1,2.55,2.29v64.07a2.31,2.31,0,0,0,1.77,2.24L203,330.7a2.31,2.31,0,0,0,2.83-2L211,282a2.31,2.31,0,0,1,2.29-2.06h17.64a2.32,2.32,0,0,1,2.28,1.95l2.84,18a2.3,2.3,0,0,0,2,1.93l17.16,2a2.27,2.27,0,0,0,1-.09L283,295.2a2.35,2.35,0,0,0,1.54-1.64l9.75-39a2.31,2.31,0,0,0-.18-1.59l-9.61-19.21a2.29,2.29,0,0,1-.23-1.18l.16-2.57a2.3,2.3,0,0,1,1.72-2.09l5.78-1.49a2.22,2.22,0,0,1,.57-.07h6.05a2.3,2.3,0,0,0,2.18-1.56L311,195.16a2.31,2.31,0,0,0-1.12-2.8l-25.51-13.27a2.32,2.32,0,0,1-1.24-2.05v-2.48a2.3,2.3,0,0,1,2.86-2.24l10.31,2.57a2.28,2.28,0,0,0,1,0l11.63-2.49a2.31,2.31,0,0,0,1.26-3.77l-9-10.34a2.3,2.3,0,0,1,1.74-3.82h9.2a2.31,2.31,0,0,1,1.09.27l28.55,15.3a2.31,2.31,0,0,0,3.37-1.68l3.61-23.44a2.31,2.31,0,0,0-2.55-2.65l-15.5,1.83A2.32,2.32,0,0,1,329.12,143.7Z"/><path class="cls-5" d="M203.5,331.26a3,3,0,0,1-.66-.07l-24.2-5.81a2.81,2.81,0,0,1-2.16-2.73V258.58a1.75,1.75,0,0,0-.6-1.34,1.84,1.84,0,0,0-1.4-.46l-18.82,2a3.47,3.47,0,0,1-.72,0l-14.18-2.18a3,3,0,0,1-.83-.27l-33.6-16.79a3.51,3.51,0,0,1-.67-.47L85.89,220.36a1.78,1.78,0,0,0-1-.47l-10.3-1.72A1.82,1.82,0,0,0,72.53,220,2.8,2.8,0,0,1,69,222.67l-31.42-8.1A2.84,2.84,0,0,1,35.75,213l-25-54.34a2.81,2.81,0,0,1,.88-3.43l24.11-17.82a1.82,1.82,0,0,0,.66-.93l3-9.88a2.85,2.85,0,0,1,1.13-1.53l15.37-10.25a2.8,2.8,0,0,1,2.69-.23l16.36,7.16a1.84,1.84,0,0,0,1.18.09l31-8a1.82,1.82,0,0,0,1.27-1.21,1.79,1.79,0,0,0-.35-1.72l-3.72-4.34a1.79,1.79,0,0,0-1.42-.63l-81.31,2.2a2.84,2.84,0,0,1-2.85-2.35l-3-18a2.81,2.81,0,0,1,.11-1.35l6.51-19.55a2.73,2.73,0,0,1,.56-1L30,57.89a1.84,1.84,0,0,0,.44-1.27l-1-23a2.81,2.81,0,0,1,2.67-2.92l19.85-1a2.75,2.75,0,0,1,1.53.36l14.07,8a1.81,1.81,0,0,0,2-.12l11.36-8.52a2.8,2.8,0,0,1,2.89-.29l51.61,24.73a2.8,2.8,0,0,1,1.43,3.5l-8,22.11a1.76,1.76,0,0,0,.14,1.53l5.55,9.53a1.8,1.8,0,0,0,1.52.89,1.84,1.84,0,0,0,1.56-.81l17.23-26.36a2.55,2.55,0,0,1,.32-.4l46.2-48.45a2.73,2.73,0,0,1,1.26-.76l14.77-4.22a2.74,2.74,0,0,1,1.45,0L245.07,17a2.82,2.82,0,0,1,1.06.51l15,11.76a2.81,2.81,0,0,1,1,1.53l4.35,17.42,3.77,12.26a1.82,1.82,0,0,0,1,1.13,1.8,1.8,0,0,0,1.52,0l5.66-2.83a2.84,2.84,0,0,1,2.51,0l20.83,10.42A2.77,2.77,0,0,1,303.21,71l5.06,20.24a2.81,2.81,0,0,1-1.11,3l-7.61,5.33a1.81,1.81,0,0,0-.11,2.88l21.89,17.91a2.79,2.79,0,0,1,1,2.18v14.83a1.83,1.83,0,0,0,.76,1.47l6.29,4.49a1.8,1.8,0,0,0,1.27.33l15.49-1.82a2.8,2.8,0,0,1,3.1,3.21l-3.6,23.44a2.81,2.81,0,0,1-1.52,2.09,2.77,2.77,0,0,1-2.58,0L313,155.2a1.81,1.81,0,0,0-.85-.21H303a1.81,1.81,0,0,0-1.37,3l9,10.34a2.81,2.81,0,0,1-1.54,4.59l-11.63,2.49a2.82,2.82,0,0,1-1.26,0l-10.31-2.58a1.8,1.8,0,0,0-2.24,1.76V177a1.81,1.81,0,0,0,1,1.61l25.51,13.26a2.82,2.82,0,0,1,1.36,3.41L301.2,225a2.81,2.81,0,0,1-2.66,1.9h-6.05a2.3,2.3,0,0,0-.45,0l-5.77,1.49a1.79,1.79,0,0,0-1.35,1.64l-.17,2.57a1.82,1.82,0,0,0,.19.92l9.61,19.22a2.83,2.83,0,0,1,.21,1.94l-9.75,39a2.77,2.77,0,0,1-1.86,2l-26.82,8.58a2.68,2.68,0,0,1-1.19.12l-17.16-2a2.81,2.81,0,0,1-2.44-2.35l-2.85-18a1.8,1.8,0,0,0-1.78-1.53H213.27a1.81,1.81,0,0,0-1.79,1.61l-5.19,46.69a2.81,2.81,0,0,1-2.79,2.49Zm-28.83-75.49a2.81,2.81,0,0,1,2.81,2.81v64.07a1.8,1.8,0,0,0,1.39,1.75l24.21,5.81a1.81,1.81,0,0,0,1.46-.28,1.77,1.77,0,0,0,.75-1.28L210.48,282a2.81,2.81,0,0,1,2.79-2.5h17.64a2.79,2.79,0,0,1,2.77,2.37l2.84,18a1.84,1.84,0,0,0,1.58,1.52l17.16,2a1.78,1.78,0,0,0,.76-.08l26.82-8.58a1.78,1.78,0,0,0,1.2-1.28l9.75-39a1.72,1.72,0,0,0-.14-1.24L284.05,234a2.83,2.83,0,0,1-.29-1.43l.16-2.57a2.8,2.8,0,0,1,2.1-2.55l5.77-1.48a2.8,2.8,0,0,1,.7-.09h6.05a1.81,1.81,0,0,0,1.71-1.22L310.47,195a1.81,1.81,0,0,0-.87-2.19l-25.51-13.27a2.8,2.8,0,0,1-1.51-2.49v-2.48a2.8,2.8,0,0,1,3.48-2.73l10.31,2.58a1.89,1.89,0,0,0,.82,0l11.62-2.49a1.81,1.81,0,0,0,1-3l-9-10.35A2.81,2.81,0,0,1,303,154h9.2a2.75,2.75,0,0,1,1.32.33L342,169.62a1.81,1.81,0,0,0,2.64-1.32l3.61-23.44a1.81,1.81,0,0,0-2-2.07l-15.5,1.82a2.75,2.75,0,0,1-2-.5l-6.29-4.5a2.8,2.8,0,0,1-1.18-2.28V122.5a1.79,1.79,0,0,0-.66-1.4l-21.89-17.91a2.81,2.81,0,0,1,.17-4.48l7.61-5.32a1.82,1.82,0,0,0,.71-1.92l-5.06-20.25A1.83,1.83,0,0,0,301.3,70L280.46,59.62a1.82,1.82,0,0,0-1.61,0l-5.66,2.83a2.81,2.81,0,0,1-3.94-1.68l-3.79-12.31L261.11,31a1.77,1.77,0,0,0-.64-1l-15-11.76a1.72,1.72,0,0,0-.68-.33l-26.3-6.58a1.87,1.87,0,0,0-.94,0l-14.77,4.22a1.83,1.83,0,0,0-.81.49l-46.2,48.45a1.79,1.79,0,0,0-.2.26L138.38,91.17A2.81,2.81,0,0,1,136,92.44a2.76,2.76,0,0,1-2.35-1.39L128,81.52a2.78,2.78,0,0,1-.21-2.37l8-22.12a1.8,1.8,0,0,0-.92-2.24L83.34,30.06a1.77,1.77,0,0,0-1.86.18L70.12,38.76A2.81,2.81,0,0,1,67,39L53,30.91a1.85,1.85,0,0,0-1-.24l-19.85,1a1.81,1.81,0,0,0-1.72,1.88l1,23a2.81,2.81,0,0,1-.69,2l-7.07,8.08a1.89,1.89,0,0,0-.36.61L16.79,86.79a1.72,1.72,0,0,0-.07.87l3,18a1.8,1.8,0,0,0,1.83,1.51l81.31-2.2a2.79,2.79,0,0,1,2.21,1l3.72,4.34a2.82,2.82,0,0,1-1.43,4.55l-31,8a2.74,2.74,0,0,1-1.83-.15l-16.36-7.16a1.78,1.78,0,0,0-1.73.16L41.06,125.92a1.82,1.82,0,0,0-.73,1l-3,9.87a2.8,2.8,0,0,1-1,1.45L12.23,156.06a1.81,1.81,0,0,0-.56,2.21l25,54.33a1.81,1.81,0,0,0,1.19,1l31.42,8.11A1.82,1.82,0,0,0,71.53,220a2.79,2.79,0,0,1,3.27-2.77l10.31,1.71a2.86,2.86,0,0,1,1.46.73l19.78,18.68a1.84,1.84,0,0,0,.43.3l33.6,16.8a2,2,0,0,0,.53.17l14.18,2.18a1.77,1.77,0,0,0,.46,0l18.83-2Z"/><path class="cls-2" d="M178.75,324.89,203,330.7a2.31,2.31,0,0,0,2.83-2L211,282a2.31,2.31,0,0,1,2.29-2.06h17.64a2.32,2.32,0,0,1,2.28,1.95l2.84,18a2.3,2.3,0,0,0,2,1.93l17.16,2a2.27,2.27,0,0,0,1-.09L283,295.2a2.35,2.35,0,0,0,1.54-1.64l9.75-39a2.31,2.31,0,0,0-.18-1.59l-9.61-19.21a2.29,2.29,0,0,1-.23-1.18l1-15.65a2.3,2.3,0,0,0-1.81-2.4l-23.57-5.13a2.3,2.3,0,0,1-1.23-.71l-8.28-9.2a2.31,2.31,0,0,0-3.19-.23l-10.24,8.53a2.3,2.3,0,0,1-3.23-.27l-11.26-13.14a2.3,2.3,0,0,0-2.35-.73l-27,7.26a2.32,2.32,0,0,0-1.62,1.63l-14.41,53.18a2.47,2.47,0,0,0-.08.6v66.33A2.31,2.31,0,0,0,178.75,324.89Z"/><path class="cls-5" d="M203.5,331.26a3,3,0,0,1-.66-.07l-24.2-5.81a2.81,2.81,0,0,1-2.16-2.73V256.32a3.06,3.06,0,0,1,.1-.73L191,202.41a2.83,2.83,0,0,1,2-2l27-7.26a2.83,2.83,0,0,1,2.86.88l11.26,13.14a1.81,1.81,0,0,0,2.53.21l10.24-8.52a2.8,2.8,0,0,1,3.88.27l8.28,9.21a1.83,1.83,0,0,0,1,.55L283.53,214a2.79,2.79,0,0,1,2.2,2.92l-1,15.65a1.82,1.82,0,0,0,.19.92l9.61,19.22a2.83,2.83,0,0,1,.21,1.94l-9.75,39a2.77,2.77,0,0,1-1.86,2l-26.82,8.58a2.68,2.68,0,0,1-1.19.12l-17.16-2a2.81,2.81,0,0,1-2.44-2.35l-2.84-18a1.82,1.82,0,0,0-1.79-1.53H213.27a1.81,1.81,0,0,0-1.79,1.61l-5.19,46.69a2.81,2.81,0,0,1-2.79,2.49Zm17.16-137.19a1.47,1.47,0,0,0-.46.07l-27,7.26a1.79,1.79,0,0,0-1.27,1.27l-14.4,53.18a1.58,1.58,0,0,0-.07.47v66.33a1.8,1.8,0,0,0,1.39,1.75l24.21,5.81a1.81,1.81,0,0,0,1.46-.28,1.77,1.77,0,0,0,.75-1.28L210.48,282a2.81,2.81,0,0,1,2.79-2.5h17.64a2.79,2.79,0,0,1,2.77,2.37l2.84,18a1.84,1.84,0,0,0,1.58,1.52l17.16,2a1.78,1.78,0,0,0,.76-.08l26.82-8.58a1.78,1.78,0,0,0,1.2-1.28l9.75-39a1.72,1.72,0,0,0-.14-1.24L284.05,234a2.83,2.83,0,0,1-.29-1.43l1-15.65a1.79,1.79,0,0,0-1.42-1.88l-23.57-5.13a2.76,2.76,0,0,1-1.49-.86L250,199.82a1.81,1.81,0,0,0-2.5-.18l-10.24,8.53a2.82,2.82,0,0,1-3.93-.33L222,194.7A1.85,1.85,0,0,0,220.66,194.07Z"/><path class="cls-5" d="M169.27,139.28v10.79h-1.41v-9.62h-3.57v3.27c0,2.33-.09,4.94-1.61,6a3.32,3.32,0,0,1-1.65.51l-.18-1.12a2.52,2.52,0,0,0,1.14-.58c.86-.85.94-2.94.94-4.67v-4.55Z"/><path class="cls-5" d="M173,142.32V145a7.2,7.2,0,0,1,1.28-.08c1.74,0,3.58.54,3.58,2.61a2.19,2.19,0,0,1-.81,1.77,5.33,5.33,0,0,1-3.36.9,20.48,20.48,0,0,1-2.09-.11v-7.72Zm0,6.77a6.66,6.66,0,0,0,1,.07c1.05,0,2.41-.35,2.41-1.65s-1.4-1.63-2.45-1.63a6.33,6.33,0,0,0-1,.08Z"/><path class="cls-5" d="M179.57,142.42a16.08,16.08,0,0,1,2.47-.18c1.29,0,3.44.21,3.44,1.94a1.85,1.85,0,0,1-1.62,1.75v0c1.14.16,2,.8,2,1.92,0,2-2.56,2.29-4.08,2.29-.87,0-1.76-.07-2.18-.1Zm1.33,6.72a8.21,8.21,0,0,0,1.14.07c.94,0,2.35-.23,2.35-1.35s-1.12-1.36-2.47-1.36h-1Zm0-3.57H182c1,0,2.12-.3,2.12-1.21s-.68-1.14-2.09-1.14a10.42,10.42,0,0,0-1.08.06Z"/><path class="cls-5" d="M189.17,140.15a.82.82,0,0,1-.89.86.83.83,0,0,1-.85-.86.86.86,0,0,1,.88-.88A.83.83,0,0,1,189.17,140.15Zm-1.57,9.92v-7.75H189v7.75Z"/><path class="cls-5" d="M191.32,142.42a15.83,15.83,0,0,1,2.46-.18c1.3,0,3.44.21,3.44,1.94a1.84,1.84,0,0,1-1.61,1.75v0c1.13.16,2,.8,2,1.92,0,2-2.56,2.29-4.08,2.29-.86,0-1.76-.07-2.17-.1Zm1.32,6.72a8.21,8.21,0,0,0,1.14.07c.95,0,2.35-.23,2.35-1.35s-1.12-1.36-2.46-1.36h-1Zm0-3.57h1.06c1,0,2.11-.3,2.11-1.21s-.67-1.14-2.08-1.14a10.8,10.8,0,0,0-1.09.06Z"/><path class="cls-5" d="M220.68,250.72a6.86,6.86,0,0,1-2.85.51c-3,0-5.33-1.92-5.33-5.46a5.37,5.37,0,0,1,5.63-5.66,5.7,5.7,0,0,1,2.57.48l-.34,1.13a5.18,5.18,0,0,0-2.18-.44c-2.53,0-4.21,1.61-4.21,4.45,0,2.64,1.52,4.33,4.15,4.33a5.43,5.43,0,0,0,2.27-.45Z"/><path class="cls-5" d="M223.67,243.32v3.27c0,1.23,0,2-.08,3.1l0,0c.46-.94.73-1.49,1.24-2.38l2.42-4H229v7.75h-1.34v-3.28c0-1.26,0-1.92.09-3.17h0c-.49,1-.83,1.62-1.28,2.4-.73,1.2-1.58,2.69-2.41,4h-1.62v-7.75Z"/><path class="cls-5" d="M231.89,243.32,233,245c.29.43.52.83.78,1.26h.05c.25-.46.51-.86.77-1.28l1.09-1.65h1.52l-2.64,3.75,2.72,4h-1.6l-1.14-1.74c-.3-.45-.56-.88-.83-1.35h0c-.25.47-.52.88-.81,1.35l-1.12,1.74H230.2l2.75-3.95-2.63-3.8Z"/><path class="cls-5" d="M240.21,241.15a.82.82,0,0,1-.89.86.83.83,0,0,1-.85-.86.86.86,0,0,1,.88-.88A.83.83,0,0,1,240.21,241.15Zm-1.57,9.92v-7.75h1.41v7.75Z"/><path class="cls-5" d="M242.36,243.42a15.83,15.83,0,0,1,2.46-.18c1.3,0,3.44.21,3.44,1.94a1.84,1.84,0,0,1-1.62,1.75v0c1.14.16,2,.8,2,1.92,0,2-2.56,2.29-4.08,2.29-.86,0-1.76-.07-2.17-.1Zm1.32,6.72a8.21,8.21,0,0,0,1.14.07c.94,0,2.35-.23,2.35-1.35s-1.12-1.36-2.46-1.36h-1Zm0-3.57h1.06c1,0,2.11-.3,2.11-1.21s-.67-1.14-2.08-1.14a10.63,10.63,0,0,0-1.09.06Z"/></g></g></svg>